<svg width="282" height="60" viewBox="0 0 282 60" fill="none" xmlns="http://www.w3.org/2000/svg">
<path d="M171.22 42.5755C169.955 42.5755 168.769 42.4902 167.66 42.3197C166.566 42.1634 165.565 41.9574 164.655 41.7016C163.76 41.4316 162.971 41.1545 162.289 40.8703L161.714 34.7318C162.836 35.2575 164.165 35.7478 165.7 36.2025C167.234 36.643 168.861 36.8632 170.581 36.8632C172.243 36.8632 173.422 36.6572 174.119 36.2451C174.829 35.8188 175.184 35.1581 175.184 34.2629V34.1137C175.184 33.5169 175.021 33.0337 174.694 32.6643C174.382 32.2806 173.849 31.9325 173.096 31.6199C172.357 31.2931 171.355 30.9449 170.09 30.5755C168.186 30.0071 166.595 29.3748 165.316 28.6785C164.051 27.9822 163.106 27.1154 162.481 26.0781C161.856 25.0266 161.543 23.698 161.543 22.0924V21.8153C161.543 19.3428 162.382 17.4529 164.058 16.1456C165.749 14.8383 168.229 14.1847 171.497 14.1847C173.458 14.1847 175.149 14.3552 176.57 14.6963C178.005 15.0373 179.22 15.4423 180.215 15.9112L180.79 21.6234C179.696 21.0977 178.453 20.6572 177.06 20.3019C175.682 19.9325 174.204 19.7478 172.627 19.7478C171.518 19.7478 170.645 19.8401 170.005 20.0249C169.38 20.2096 168.939 20.4796 168.684 20.8348C168.428 21.1758 168.3 21.595 168.3 22.0924V22.1776C168.3 22.6892 168.442 23.1368 168.726 23.5204C169.025 23.9041 169.55 24.2735 170.303 24.6288C171.071 24.984 172.158 25.3677 173.565 25.7797C175.454 26.3339 177.018 26.9307 178.254 27.5702C179.504 28.1954 180.435 29.0124 181.046 30.0213C181.671 31.016 181.984 32.3446 181.984 34.0071V34.3481C181.984 37.0906 181.096 39.151 179.319 40.5293C177.543 41.8934 174.843 42.5755 171.22 42.5755ZM185.779 42V14.7602H192.302V42H185.779ZM187.719 42V36.4369H204.856V42H187.719ZM189.595 30.8526V25.5027H204.344V30.8526H189.595ZM187.698 20.2593V14.7602H204.664V20.2593H187.698ZM218.237 14.7389L225.612 34.7318H225.91L225.612 23.222V14.7389H231.963V42H223.033L215.381 21.5595H215.104L215.402 33.325V42H209.05V14.7389H218.237ZM245.362 42.5755C244.098 42.5755 242.911 42.4902 241.803 42.3197C240.709 42.1634 239.707 41.9574 238.798 41.7016C237.902 41.4316 237.114 41.1545 236.432 40.8703L235.856 34.7318C236.979 35.2575 238.307 35.7478 239.842 36.2025C241.377 36.643 243.004 36.8632 244.723 36.8632C246.386 36.8632 247.565 36.6572 248.261 36.2451C248.972 35.8188 249.327 35.1581 249.327 34.2629V34.1137C249.327 33.5169 249.164 33.0337 248.837 32.6643C248.524 32.2806 247.991 31.9325 247.238 31.6199C246.499 31.2931 245.497 30.9449 244.233 30.5755C242.329 30.0071 240.737 29.3748 239.458 28.6785C238.194 27.9822 237.249 27.1154 236.624 26.0781C235.998 25.0266 235.686 23.698 235.686 22.0924V21.8153C235.686 19.3428 236.524 17.4529 238.201 16.1456C239.892 14.8383 242.371 14.1847 245.64 14.1847C247.6 14.1847 249.291 14.3552 250.712 14.6963C252.148 15.0373 253.362 15.4423 254.357 15.9112L254.933 21.6234C253.838 21.0977 252.595 20.6572 251.203 20.3019C249.824 19.9325 248.346 19.7478 246.769 19.7478C245.661 19.7478 244.787 19.8401 244.148 20.0249C243.522 20.2096 243.082 20.4796 242.826 20.8348C242.57 21.1758 242.442 21.595 242.442 22.0924V22.1776C242.442 22.6892 242.584 23.1368 242.869 23.5204C243.167 23.9041 243.693 24.2735 244.446 24.6288C245.213 24.984 246.3 25.3677 247.707 25.7797C249.597 26.3339 251.16 26.9307 252.396 27.5702C253.647 28.1954 254.577 29.0124 255.188 30.0213C255.814 31.016 256.126 32.3446 256.126 34.0071V34.3481C256.126 37.0906 255.238 39.151 253.462 40.5293C251.686 41.8934 248.986 42.5755 245.362 42.5755ZM259.922 42V14.7602H266.444V42H259.922ZM261.861 42V36.4369H278.998V42H261.861ZM263.737 30.8526V25.5027H278.487V30.8526H263.737ZM261.84 20.2593V14.7602H278.806V20.2593H261.84Z" fill="#DE3819"/>
<rect x="71.1428" y="0.149734" width="8.57143" height="42" fill="#DE3819"/>
<path fill-rule="evenodd" clip-rule="evenodd" d="M63.4286 0.149734V8.72116H47.3452L19.2857 42.1498L0 42.1497V33.5783H14.5448L43.7143 0.149734H63.4286Z" fill="#DE3819"/>
<path d="M131.143 0.149755L135.156 8.26615L106.714 42.1498L101.215 34.4477L131.143 0.149755Z" fill="#DE3819"/>
<path d="M150.857 0.149734V8.72116H134.571L131.143 0.149734H150.857Z" fill="#DE3819"/>
<path d="M102 33.5783L106.714 42.1497H87.4286V33.5783H102Z" fill="#DE3819"/>
<path d="M107.143 0.149755L103.13 8.26615L131.571 42.1498L137.071 34.4477L107.143 0.149755Z" fill="#DE3819"/>
<path d="M87.4285 0.149734V8.72116H103.714L107.143 0.149734H87.4285Z" fill="#DE3819"/>
<path d="M136.286 33.5783L131.571 42.1497H150.857V33.5783H136.286Z" fill="#DE3819"/>
</svg>
